<?xml version="1.0" encoding="UTF-8"?>
<svg width="17px" height="19px" viewBox="0 0 17 19" version="1.1" xmlns="http://www.w3.org/2000/svg" xmlns:xlink="http://www.w3.org/1999/xlink">
    <!-- Generator: Sketch 52.3 (67297) - http://www.bohemiancoding.com/sketch -->
    <title>2561442 - github</title>
    <desc>Created with Sketch.</desc>
    <g id="Page-1" stroke="none" stroke-width="1" fill="none" fill-rule="evenodd" stroke-linecap="round" stroke-linejoin="round">
        <g id="portfolio-copy" transform="translate(-890.000000, -36.000000)" stroke="#000000" stroke-width="2">
            <g id="2561442---github" transform="translate(891.000000, 37.000000)">
                <path d="M5.25,14.25 C1.5,15.375 1.5,12.375 0,12 M10.5,16.5 L10.5,13.5975 C10.5569124,12.874048 10.3001184,12.1610348 9.795,11.64 C12.15,11.3775 14.625,10.485 14.625,6.39 C14.6248075,5.34287026 14.2220191,4.33589911 13.5,3.5775 C13.8418919,2.66137991 13.817718,1.64876203 13.4325,0.75 C13.4325,0.75 12.5475,0.4875 10.5,1.86 C8.7810068,1.39411631 6.9689932,1.39411631 5.25,1.86 C3.2025,0.4875 2.3175,0.75 2.3175,0.75 C1.932282,1.64876203 1.9081081,2.66137991 2.25,3.5775 C1.52259533,4.34152476 1.11939199,5.35759719 1.125,6.4125 C1.125,10.4775 3.6,11.37 5.955,11.6625 C5.45596469,12.1781727 5.19965353,12.881665 5.25,13.5975 L5.25,16.5" id="Shape"></path>
            </g>
        </g>
    </g>
</svg>